<svg width="572" height="542" xmlns="http://www.w3.org/2000/svg">
 <g id="Layer_1">
  <title>Layer 1</title>
  <path id="svg_13" d="m120,299" opacity="NaN" stroke-width="2" stroke="#000" fill="none"/>
  <path fill="#ffd43b" stroke-width="2" opacity="NaN" d="m103.6,112.14999" id="svg_5"/>
  <path fill="#ffd43b" stroke-width="2" opacity="NaN" d="m90.6,111.14999" id="svg_6"/>
  <path id="svg_9" d="m637.26654,162.59515" opacity="NaN" stroke-width="2" stroke="#000" fill="none" transform="rotate(150 637.266 162.595)"/>
  <g id="svg_20">
   <g id="svg_16">
    <g transform="rotate(-30 214.434 147.538)" id="svg_10" stroke="null">
     <path id="svg_23" d="m-25.21686,268.71536c0.64835,1.57007 1.95523,3.21347 3.3353,4.1983c1.38008,0.98511 3.27232,1.5311 4.94508,1.71149l476.4269,-0.09048c3.11731,0.00858 5.82123,-2.25247 7.70038,-4.20303c1.39716,-2.36395 1.9696,-5.34692 1.51056,-8.12323c-70.52319,-244.37287 -215.71533,-284.11054 -363.62094,-204.89046c-1.46674,1.15386 -2.85632,2.38477 -3.70682,3.84684c-0.85059,1.46207 -1.31534,2.84708 -1.31824,4.92555l16.70462,93.22099l-147.54564,0.64479c-1.91151,0.13335 -4.82498,1.34576 -6.3517,2.94299c-1.52676,1.59624 -2.7449,4.504 -2.80777,6.64029c-0.16475,27.33931 -0.60194,42.03426 14.72829,99.17596l0,0l-0.00002,0z" opacity="NaN" stroke-width="2" fill="#306998" stroke="null"/>
     <ellipse fill="#ffffff" stroke-width="2" cx="151.97828" cy="101.12214" id="svg_24" rx="9.2817" ry="9.2817" stroke="null"/>
     <rect id="svg_21" height="3.80969" width="130.37277" y="155.43024" x="115.73089" stroke-width="2" fill="#ffffff" stroke="null"/>
    </g>
    <g transform="rotate(-30 250.712 210.374)" id="svg_38">
     <rect fill="#000000" stroke="null" stroke-width="2" x="226.82914" y="207.84543" width="75" height="5.20978" id="svg_31"/>
     <path fill="#000000" stroke="null" stroke-width="2" d="m205.89264,210.37473l-6.29718,-17.8002l33.86359,17.8002l-33.86359,17.79999l6.29718,-17.79999z" id="svg_32" transform="rotate(180 216.527 210.374)"/>
    </g>
    <ellipse ry="16" rx="16" id="svg_3" cy="139" cx="137.05467" fill="#fff"/>
    <rect transform="rotate(-30 187.652 169.421)" id="svg_11" height="11.44728" width="132.8482" y="163.69702" x="121.22785" fill="#fff"/>
   </g>
   <g id="svg_17">
    <g transform="rotate(-30 359.028 380.198)" id="svg_8">
     <path id="svg_12" d="m79.03606,509.49976c0.27802,3.34998 1.31401,5.50897 3.32501,7.77698c1.866,1.797 4.05701,2.83698 7.006,2.79401l539.68103,-0.04199c3.25897,-0.26801 4.177,-1.00702 6.755,-3.05304c2.23199,-2.27399 3.12097,-5.14697 3.21698,-7.92896c-8.01202,-190.59402 -202.078,-337.62001 -414.19403,-235.04703c-2.33496,0.98001 -4.16101,2.341 -5.60501,4.466c-1.08896,1.88101 -1.79697,4.52399 -1.61392,7.168l-0.22104,105.69601l-101.60799,-0.565c-1.905,0.06198 -3.914,1.16498 -5.50699,2.16498c-1.45401,1.172 -2.492,2.44901 -3.321,4.35101c-18.675,46.009 -23.39601,57.46298 -27.91402,112.21902l-0.00003,0z" opacity="NaN" stroke-width="2" fill="#ffd43b" transform="rotate(180 359.028 380.197)"/>
     <rect stroke="null" id="svg_19" height="4" width="137.21318" y="369.03218" x="363.45176" stroke-width="2" fill="#ffffff"/>
     <ellipse fill="#ffffff" stroke-width="2" cx="442.0215" cy="437.52862" id="svg_15" rx="10.49421" ry="10.49421" transform="rotate(180 442.021 437.528)"/>
    </g>
    <g transform="rotate(-30 313.001 299.941)" id="svg_37">
     <path fill="#000000" stroke="null" stroke-width="2" d="m365.41113,299.94058l-6.29712,-17.8002l33.86353,17.8002l-33.86353,17.79996l6.29712,-17.79996z" id="svg_34"/>
     <rect fill="#000000" stroke="null" stroke-width="2" x="260.25817" y="297.41126" width="106.80047" height="5.20978" id="svg_35"/>
     <path fill="#000000" stroke="null" stroke-width="2" d="m239.32172,299.94058l-6.29718,-17.8002l33.86353,17.8002l-33.86353,17.79996l6.29718,-17.79996z" id="svg_36" transform="rotate(180 249.956 299.941)"/>
    </g>
    <ellipse ry="16" rx="16" id="svg_4" cy="387" cx="460.05467" fill="#fff"/>
    <rect stroke="null" transform="rotate(-30 419.487 339.627)" id="svg_14" height="11.44728" width="138.58566" y="333.90357" x="350.19457" fill="#fff"/>
   </g>
  </g>
 </g>

</svg>